# xmcd
#
# Track frame offsets: 
#        150
#        14815
#        27310
#        42369
#        54124
#        68602
#        83464
#        96649
#        109957
#        122001
#        136680
#        152052
#
# Disc length: 2236 seconds
#
# Revision: 0
# Processed by: cddbd v1.5.2PL0 Copyright (c) Steve Scherf et al.
# Submitted via: ExactAudioCopyFreeDBPlugin 1.0
#
DISCID=9708ba0c
DTITLE=The Bottle Rockets - Bit Logic
DYEAR=2018
DGENRE=Alt. Country
TTITLE0=Bit Logic
TTITLE1=Highway 70 Blues
TTITLE2=Lo-Fi
TTITLE3=Maybe Tomorrow
TTITLE4=Bad Time to Be an Outlaw
TTITLE5=Saxophone
TTITLE6=Human Perfection
TTITLE7=Knotty Pine
TTITLE8=Way Down South
TTITLE9=Doomsday Letter
TTITLE10=Stovall's Grove
TTITLE11=Silver Ring
EXTD=
EXTT0=
EXTT1=
EXTT2=
EXTT3=
EXTT4=
EXTT5=
EXTT6=
EXTT7=
EXTT8=
EXTT9=
EXTT10=
EXTT11=
PLAYORDER=
